<svg xmlns="http://www.w3.org/2000/svg" xmlns:xlink="http://www.w3.org/1999/xlink" version="1.1" x="0px" y="0px" viewBox="0 0 318.6 233.8" enable-background="new 0 0 318.6 233.8" xml:space="preserve">
<path d="M35.1 21.3c0 0 2-3.5 3.5-4.9c1.5-1.4 2.7-0.7 3.4-0.2c0.7 0.5 3.7 3.2 5.7 4c2 0.8 7.3 6.8 8.3 8.4c1 1.7 0.3 4.7-0.3 6.9 c-0.7 2.2-7.3 27.2-9.3 34.9c-2 7.8-8.9 39-11.3 49.5c-2.4 10.5-7.4 41.5-7.6 50.6c0 0 15.2-33.9 23-51.8 c7.8-17.9 23.8-48.3 32.2-55.5c8.4-7.3 10-6.9 16-5.4c6.1 1.5 19.6 5.9 20.8 19.1c1.2 13.2-3.2 32.1-7.1 43.9 c-3.9 11.8-7.8 24.6-7.8 24.6s17.4-26.2 38.8-57.4c21.4-31.2 40.5-48.6 46.1-48.9c5.6-0.3 20.8 5.6 17.5 19.4 c-3.2 13.8-25 63.5-31.1 81.7c-6.1 18.2-15 48.9-16.9 60.6c0 0-1 9.5-7.1 8.8c-6.1-0.7-11.5-5.9-9.3-25c2.2-19.1 18-64.8 23.5-78.5 c5.6-13.7 13.9-36.5 13.9-36.5s-40.8 52.2-53.9 72.2c-12 18.3-30.5 40-30.6 42c-0.2 2-0.7 5.7-4.6 6.6c-3.9 0.8-10.3-9-14-12.2 c-3.7-3.2-3.2-9.5 0.2-23.1c3.4-13.7 21.4-60.1 21.6-79.8c0 0-15.4 21.3-38.5 75.3c-23.1 54-22.8 52.8-28.2 64.6 c-5.4 11.8-10.8 22.1-19.8 17.4c-8.9-4.7-9.8-13.2-12.1-14.8c-2.4-1.7 9.4-84.2 15.9-121.9C22.6 58.3 30.9 28.2 35.1 21.3z"/>
<path d="M268.2 0c0 0 4.8 5.2 10.3 7c5.5 1.7 10.3 10.2 7.8 13.5c-2.4 3.3-21.9 51.8-26.1 64.2c-8.5 25-7.9 23.9-16.5 48.9 c0 0-18 52.5-14.6 52.8c2 0.2 27.5-33.2 27.5-33.2s16.8-21.8 29-37.3c0 0 5.5-6.1 10.1-6.3c1.9-0.1 26.9-2.1 22.3 21 c-4.1 20.5-24.3 89.2-8.3 70.6c0 0 3 4 0.7 8.3c-1.4 2.5-2.9 5.1-2.9 5.1s-3.2 6.2-7.6 5.4c-4.6-0.9-19.9-2.6-9.6-54.5 c0 0 3.5-16.4 5.2-23.4c1.8-7 0-4.2-4.6 2c-4.6 6.1-55.3 75.2-73.9 74.4c-18.6-0.9-15.3-33.7 3.9-88.8 c19.2-55.1 37.4-107.2 42.5-118.2"/>
</svg>
